<svg width="185" height="29" viewBox="0 0 185 29" fill="none" xmlns="http://www.w3.org/2000/svg">
<path d="M9.432 7.56C9.432 7.448 9.464 7.36 9.528 7.296C9.592 7.232 9.68 7.2 9.792 7.2H13.584C13.696 7.2 13.784 7.232 13.848 7.296C13.912 7.36 13.944 7.448 13.944 7.56V23.64C13.944 23.752 13.912 23.84 13.848 23.904C13.784 23.968 13.696 24 13.584 24H9.792C9.68 24 9.592 23.968 9.528 23.904C9.464 23.84 9.432 23.752 9.432 23.64V17.544C9.432 17.464 9.392 17.424 9.312 17.424H5.568C5.488 17.424 5.448 17.464 5.448 17.544V23.64C5.448 23.752 5.416 23.84 5.352 23.904C5.288 23.968 5.2 24 5.088 24H1.296C1.184 24 1.096 23.968 1.032 23.904C0.968 23.84 0.936 23.752 0.936 23.64V7.56C0.936 7.448 0.968 7.36 1.032 7.296C1.096 7.232 1.184 7.2 1.296 7.2H5.088C5.2 7.2 5.288 7.232 5.352 7.296C5.416 7.36 5.448 7.448 5.448 7.56V13.44C5.448 13.52 5.488 13.56 5.568 13.56H9.312C9.392 13.56 9.432 13.52 9.432 13.44V7.56ZM21.3679 24.192C19.8479 24.192 18.5599 23.784 17.5039 22.968C16.4639 22.152 15.7759 21.048 15.4399 19.656C15.2799 19.08 15.1999 18.44 15.1999 17.736C15.1999 16.952 15.2959 16.24 15.4879 15.6C15.8719 14.272 16.5759 13.232 17.5999 12.48C18.6399 11.712 19.9039 11.328 21.3919 11.328C22.8799 11.328 24.1279 11.712 25.1359 12.48C26.1599 13.232 26.8639 14.256 27.2479 15.552C27.4399 16.224 27.5359 16.936 27.5359 17.688C27.5359 18.296 27.4719 18.904 27.3439 19.512C27.0079 20.952 26.3119 22.096 25.2559 22.944C24.2159 23.776 22.9199 24.192 21.3679 24.192ZM21.3679 20.328C21.7839 20.328 22.1199 20.192 22.3759 19.92C22.6319 19.632 22.8079 19.256 22.9039 18.792C22.9679 18.488 22.9999 18.128 22.9999 17.712C22.9999 17.344 22.9599 16.976 22.8799 16.608C22.6399 15.664 22.1359 15.192 21.3679 15.192C20.5679 15.192 20.0639 15.664 19.8559 16.608C19.7759 16.88 19.7359 17.248 19.7359 17.712C19.7359 18.128 19.7679 18.488 19.8319 18.792C20.0719 19.816 20.5839 20.328 21.3679 20.328ZM29.2067 24C29.0947 24 29.0067 23.968 28.9427 23.904C28.8787 23.84 28.8467 23.752 28.8467 23.64V7.56C28.8467 7.448 28.8787 7.36 28.9427 7.296C29.0067 7.232 29.0947 7.2 29.2067 7.2H32.9987C33.1107 7.2 33.1987 7.232 33.2627 7.296C33.3267 7.36 33.3587 7.448 33.3587 7.56V23.64C33.3587 23.752 33.3267 23.84 33.2627 23.904C33.1987 23.968 33.1107 24 32.9987 24H29.2067ZM37.2204 10.68C36.5644 10.68 36.0204 10.472 35.5884 10.056C35.1724 9.624 34.9644 9.08 34.9644 8.424C34.9644 7.752 35.1724 7.208 35.5884 6.792C36.0204 6.376 36.5644 6.168 37.2204 6.168C37.8764 6.168 38.4124 6.376 38.8284 6.792C39.2604 7.208 39.4764 7.752 39.4764 8.424C39.4764 9.064 39.2604 9.6 38.8284 10.032C38.4124 10.464 37.8764 10.68 37.2204 10.68ZM35.3004 24C35.1884 24 35.1004 23.968 35.0364 23.904C34.9724 23.84 34.9404 23.752 34.9404 23.64V11.88C34.9404 11.768 34.9724 11.68 35.0364 11.616C35.1004 11.552 35.1884 11.52 35.3004 11.52H39.0924C39.2044 11.52 39.2924 11.552 39.3564 11.616C39.4204 11.68 39.4524 11.768 39.4524 11.88V23.64C39.4524 23.752 39.4204 23.84 39.3564 23.904C39.2924 23.968 39.2044 24 39.0924 24H35.3004ZM48.7622 7.56C48.7622 7.448 48.7942 7.36 48.8582 7.296C48.9222 7.232 49.0102 7.2 49.1222 7.2H52.9142C53.0262 7.2 53.1142 7.232 53.1782 7.296C53.2422 7.36 53.2742 7.448 53.2742 7.56V23.64C53.2742 23.752 53.2422 23.84 53.1782 23.904C53.1142 23.968 53.0262 24 52.9142 24H49.1222C49.0102 24 48.9222 23.968 48.8582 23.904C48.7942 23.84 48.7622 23.752 48.7622 23.64V22.92C48.7622 22.872 48.7462 22.84 48.7142 22.824C48.6822 22.808 48.6502 22.824 48.6182 22.872C48.0262 23.752 47.0982 24.192 45.8342 24.192C44.7622 24.192 43.7942 23.856 42.9302 23.184C42.0822 22.496 41.4822 21.568 41.1302 20.4C40.8902 19.6 40.7702 18.704 40.7702 17.712C40.7702 16.56 40.9462 15.536 41.2982 14.64C41.6822 13.664 42.2822 12.872 43.0982 12.264C43.9142 11.64 44.8902 11.328 46.0262 11.328C47.1942 11.328 48.0582 11.696 48.6182 12.432C48.6502 12.464 48.6822 12.48 48.7142 12.48C48.7462 12.464 48.7622 12.432 48.7622 12.384V7.56ZM48.4022 19.512C48.6422 19.048 48.7622 18.472 48.7622 17.784C48.7622 17.016 48.6342 16.4 48.3782 15.936C48.0902 15.44 47.6742 15.192 47.1302 15.192C46.5542 15.192 46.1302 15.456 45.8582 15.984C45.6182 16.432 45.4982 17.032 45.4982 17.784C45.4982 18.504 45.6182 19.088 45.8582 19.536C46.1462 20.064 46.5702 20.328 47.1302 20.328C47.6902 20.328 48.1142 20.056 48.4022 19.512ZM60.3566 11.328C61.4446 11.328 62.4446 11.512 63.3566 11.88C64.2686 12.248 64.9886 12.752 65.5166 13.392C66.0446 14.032 66.3086 14.728 66.3086 15.48V23.64C66.3086 23.752 66.2766 23.84 66.2126 23.904C66.1486 23.968 66.0606 24 65.9486 24H62.1566C62.0446 24 61.9566 23.968 61.8926 23.904C61.8286 23.84 61.7966 23.752 61.7966 23.64V22.8C61.7966 22.736 61.7806 22.704 61.7486 22.704C61.7326 22.688 61.7086 22.704 61.6766 22.752C61.4046 23.248 61.0286 23.616 60.5486 23.856C60.0686 24.08 59.4366 24.192 58.6526 24.192C57.3406 24.192 56.3086 23.896 55.5566 23.304C54.8046 22.696 54.4286 21.816 54.4286 20.664C54.4286 19.448 54.8526 18.512 55.7006 17.856C56.5646 17.2 57.8126 16.872 59.4446 16.872H61.6766C61.7566 16.872 61.7966 16.832 61.7966 16.752V16.32C61.7966 15.984 61.6686 15.712 61.4126 15.504C61.1726 15.296 60.8446 15.192 60.4286 15.192C60.1406 15.192 59.8846 15.24 59.6606 15.336C59.4366 15.432 59.2766 15.56 59.1806 15.72C59.1166 15.832 59.0526 15.912 58.9886 15.96C58.9406 15.992 58.8686 16 58.7726 15.984L54.9086 15.504C54.6846 15.472 54.5726 15.376 54.5726 15.216C54.6366 14.496 54.9246 13.84 55.4366 13.248C55.9486 12.656 56.6286 12.192 57.4766 11.856C58.3406 11.504 59.3006 11.328 60.3566 11.328ZM60.0446 21.072C60.5566 21.072 60.9726 20.936 61.2926 20.664C61.6286 20.392 61.7966 20.024 61.7966 19.56V19.248C61.7966 19.168 61.7566 19.128 61.6766 19.128H60.4766C59.4686 19.128 58.9646 19.456 58.9646 20.112C58.9646 20.4 59.0526 20.632 59.2286 20.808C59.4206 20.984 59.6926 21.072 60.0446 21.072ZM67.8936 24C67.7816 24 67.6936 23.968 67.6296 23.904C67.5656 23.84 67.5336 23.752 67.5336 23.64V20.184C67.5336 20.008 67.5976 19.864 67.7256 19.752L72.1656 15.744C72.1976 15.712 72.2056 15.68 72.1896 15.648C72.1896 15.616 72.1656 15.6 72.1176 15.6H68.0616C67.9496 15.6 67.8616 15.568 67.7976 15.504C67.7336 15.44 67.7016 15.352 67.7016 15.24V11.88C67.7016 11.768 67.7336 11.68 67.7976 11.616C67.8616 11.552 67.9496 11.52 68.0616 11.52H77.3256C77.4376 11.52 77.5256 11.552 77.5896 11.616C77.6536 11.68 77.6856 11.768 77.6856 11.88V15.336C77.6856 15.512 77.6216 15.656 77.4936 15.768L72.8376 19.776C72.8056 19.808 72.7896 19.84 72.7896 19.872C72.8056 19.904 72.8376 19.92 72.8856 19.92H77.5176C77.6296 19.92 77.7176 19.952 77.7816 20.016C77.8456 20.08 77.8776 20.168 77.8776 20.28V23.64C77.8776 23.752 77.8456 23.84 77.7816 23.904C77.7176 23.968 77.6296 24 77.5176 24H67.8936ZM91.143 16.872C91.191 17.224 91.215 17.584 91.215 17.952C91.215 18.208 91.207 18.408 91.191 18.552C91.191 18.776 91.071 18.888 90.831 18.888H83.631C83.567 18.888 83.535 18.92 83.535 18.984C83.535 19.128 83.599 19.296 83.727 19.488C83.887 19.76 84.167 19.992 84.567 20.184C84.983 20.36 85.447 20.448 85.959 20.448C86.391 20.448 86.791 20.384 87.159 20.256C87.527 20.128 87.839 19.944 88.095 19.704C88.175 19.64 88.255 19.608 88.335 19.608C88.447 19.608 88.535 19.656 88.599 19.752L90.423 22.08C90.487 22.16 90.519 22.248 90.519 22.344C90.519 22.44 90.479 22.52 90.399 22.584C89.839 23.128 89.143 23.536 88.311 23.808C87.479 24.064 86.583 24.192 85.623 24.192C84.135 24.192 82.863 23.88 81.807 23.256C80.751 22.632 79.983 21.744 79.503 20.592C79.151 19.76 78.975 18.864 78.975 17.904C78.975 16.896 79.119 16 79.407 15.216C79.839 14 80.551 13.048 81.543 12.36C82.535 11.672 83.703 11.328 85.047 11.328C86.071 11.328 87.015 11.568 87.879 12.048C88.759 12.528 89.479 13.192 90.039 14.04C90.615 14.872 90.983 15.816 91.143 16.872ZM85.023 15.192C84.367 15.192 83.911 15.512 83.655 16.152L83.559 16.416C83.543 16.464 83.551 16.504 83.583 16.536C83.615 16.552 83.647 16.56 83.679 16.56H86.415C86.479 16.56 86.511 16.528 86.511 16.464C86.511 16.4 86.487 16.296 86.439 16.152C86.359 15.848 86.191 15.616 85.935 15.456C85.695 15.28 85.391 15.192 85.023 15.192ZM108.302 15.264C108.238 15.312 108.238 15.36 108.302 15.408C109.022 15.808 109.55 16.32 109.886 16.944C110.222 17.568 110.39 18.32 110.39 19.2C110.39 20.848 109.814 22.064 108.662 22.848C107.51 23.616 106.014 24 104.174 24H97.7179C97.6059 24 97.5179 23.968 97.4539 23.904C97.3899 23.84 97.3579 23.752 97.3579 23.64V7.56C97.3579 7.448 97.3899 7.36 97.4539 7.296C97.5179 7.232 97.6059 7.2 97.7179 7.2H103.958C106.006 7.2 107.542 7.568 108.566 8.304C109.606 9.024 110.126 10.24 110.126 11.952C110.126 13.472 109.518 14.576 108.302 15.264ZM101.99 11.064C101.91 11.064 101.87 11.104 101.87 11.184V13.584C101.87 13.664 101.91 13.704 101.99 13.704H103.958C105.126 13.704 105.71 13.264 105.71 12.384C105.71 11.504 105.126 11.064 103.958 11.064H101.99ZM104.174 20.136C105.31 20.136 105.878 19.664 105.878 18.72C105.878 17.824 105.318 17.376 104.198 17.376H101.99C101.91 17.376 101.87 17.416 101.87 17.496V20.016C101.87 20.096 101.91 20.136 101.99 20.136H104.174ZM117.884 24.192C116.364 24.192 115.076 23.784 114.02 22.968C112.98 22.152 112.292 21.048 111.956 19.656C111.796 19.08 111.716 18.44 111.716 17.736C111.716 16.952 111.812 16.24 112.004 15.6C112.388 14.272 113.092 13.232 114.116 12.48C115.156 11.712 116.42 11.328 117.908 11.328C119.396 11.328 120.644 11.712 121.652 12.48C122.676 13.232 123.38 14.256 123.764 15.552C123.956 16.224 124.052 16.936 124.052 17.688C124.052 18.296 123.988 18.904 123.859 19.512C123.524 20.952 122.828 22.096 121.772 22.944C120.732 23.776 119.436 24.192 117.884 24.192ZM117.884 20.328C118.3 20.328 118.636 20.192 118.892 19.92C119.148 19.632 119.324 19.256 119.42 18.792C119.484 18.488 119.516 18.128 119.516 17.712C119.516 17.344 119.476 16.976 119.396 16.608C119.156 15.664 118.652 15.192 117.884 15.192C117.084 15.192 116.58 15.664 116.372 16.608C116.292 16.88 116.252 17.248 116.252 17.712C116.252 18.128 116.284 18.488 116.348 18.792C116.588 19.816 117.1 20.328 117.884 20.328ZM131.266 24.192C129.746 24.192 128.458 23.784 127.402 22.968C126.362 22.152 125.674 21.048 125.338 19.656C125.178 19.08 125.098 18.44 125.098 17.736C125.098 16.952 125.194 16.24 125.386 15.6C125.77 14.272 126.474 13.232 127.498 12.48C128.538 11.712 129.802 11.328 131.29 11.328C132.778 11.328 134.026 11.712 135.034 12.48C136.058 13.232 136.762 14.256 137.146 15.552C137.338 16.224 137.434 16.936 137.434 17.688C137.434 18.296 137.37 18.904 137.242 19.512C136.906 20.952 136.21 22.096 135.154 22.944C134.114 23.776 132.818 24.192 131.266 24.192ZM131.266 20.328C131.682 20.328 132.018 20.192 132.274 19.92C132.53 19.632 132.706 19.256 132.802 18.792C132.866 18.488 132.898 18.128 132.898 17.712C132.898 17.344 132.858 16.976 132.778 16.608C132.538 15.664 132.034 15.192 131.266 15.192C130.466 15.192 129.962 15.664 129.754 16.608C129.674 16.88 129.634 17.248 129.634 17.712C129.634 18.128 129.666 18.488 129.73 18.792C129.97 19.816 130.482 20.328 131.266 20.328ZM139.105 24C138.993 24 138.905 23.968 138.841 23.904C138.777 23.84 138.745 23.752 138.745 23.64V7.56C138.745 7.448 138.777 7.36 138.841 7.296C138.905 7.232 138.993 7.2 139.105 7.2H142.897C143.009 7.2 143.097 7.232 143.161 7.296C143.225 7.36 143.257 7.448 143.257 7.56V14.448C143.257 14.496 143.273 14.528 143.305 14.544C143.337 14.56 143.369 14.544 143.401 14.496L145.441 11.736C145.537 11.592 145.681 11.52 145.873 11.52H150.193C150.289 11.52 150.361 11.544 150.409 11.592C150.473 11.624 150.505 11.672 150.505 11.736C150.505 11.8 150.481 11.872 150.433 11.952L147.337 16.128C147.305 16.176 147.305 16.232 147.337 16.296L150.865 23.568L150.913 23.76C150.913 23.92 150.809 24 150.601 24H146.641C146.433 24 146.289 23.904 146.209 23.712L144.265 19.104C144.249 19.072 144.217 19.056 144.169 19.056C144.137 19.04 144.113 19.048 144.097 19.08L143.305 20.424C143.273 20.488 143.257 20.536 143.257 20.568V23.64C143.257 23.752 143.225 23.84 143.161 23.904C143.097 23.968 143.009 24 142.897 24H139.105ZM154.338 10.68C153.682 10.68 153.138 10.472 152.706 10.056C152.29 9.624 152.082 9.08 152.082 8.424C152.082 7.752 152.29 7.208 152.706 6.792C153.138 6.376 153.682 6.168 154.338 6.168C154.994 6.168 155.53 6.376 155.946 6.792C156.378 7.208 156.594 7.752 156.594 8.424C156.594 9.064 156.378 9.6 155.946 10.032C155.53 10.464 154.994 10.68 154.338 10.68ZM152.418 24C152.306 24 152.218 23.968 152.154 23.904C152.09 23.84 152.058 23.752 152.058 23.64V11.88C152.058 11.768 152.09 11.68 152.154 11.616C152.218 11.552 152.306 11.52 152.418 11.52H156.21C156.322 11.52 156.41 11.552 156.474 11.616C156.538 11.68 156.57 11.768 156.57 11.88V23.64C156.57 23.752 156.538 23.84 156.474 23.904C156.41 23.968 156.322 24 156.21 24H152.418ZM165.639 11.328C166.439 11.328 167.159 11.504 167.799 11.856C168.439 12.208 168.943 12.728 169.311 13.416C169.695 14.088 169.887 14.888 169.887 15.816V23.64C169.887 23.752 169.855 23.84 169.791 23.904C169.727 23.968 169.639 24 169.527 24H165.735C165.623 24 165.535 23.968 165.471 23.904C165.407 23.84 165.375 23.752 165.375 23.64V16.8C165.375 16.32 165.247 15.936 164.991 15.648C164.751 15.344 164.431 15.192 164.031 15.192C163.615 15.192 163.279 15.344 163.023 15.648C162.783 15.936 162.663 16.32 162.663 16.8V23.64C162.663 23.752 162.631 23.84 162.567 23.904C162.503 23.968 162.415 24 162.303 24H158.511C158.399 24 158.311 23.968 158.247 23.904C158.183 23.84 158.151 23.752 158.151 23.64V11.88C158.151 11.768 158.183 11.68 158.247 11.616C158.311 11.552 158.399 11.52 158.511 11.52H162.303C162.415 11.52 162.503 11.552 162.567 11.616C162.631 11.68 162.663 11.768 162.663 11.88V12.744C162.663 12.808 162.679 12.848 162.711 12.864C162.743 12.88 162.767 12.864 162.783 12.816C163.391 11.824 164.343 11.328 165.639 11.328ZM178.954 11.88C178.954 11.768 178.986 11.68 179.05 11.616C179.114 11.552 179.202 11.52 179.314 11.52H183.106C183.218 11.52 183.306 11.552 183.37 11.616C183.434 11.68 183.466 11.768 183.466 11.88V22.368C183.466 24.656 182.802 26.28 181.474 27.24C180.162 28.216 178.506 28.704 176.506 28.704C175.61 28.704 174.77 28.632 173.986 28.488C173.778 28.44 173.674 28.304 173.674 28.08L173.818 24.84C173.818 24.568 173.962 24.472 174.25 24.552C174.922 24.728 175.554 24.816 176.146 24.816C176.914 24.816 177.546 24.656 178.042 24.336C178.538 24.016 178.834 23.528 178.93 22.872C178.946 22.808 178.93 22.768 178.882 22.752C178.85 22.736 178.81 22.752 178.762 22.8C178.218 23.312 177.434 23.568 176.41 23.568C173.85 23.568 172.218 22.528 171.514 20.448C171.242 19.648 171.106 18.712 171.106 17.64C171.106 16.456 171.274 15.448 171.61 14.616C171.994 13.608 172.594 12.808 173.41 12.216C174.242 11.624 175.194 11.328 176.266 11.328C177.37 11.328 178.218 11.664 178.81 12.336C178.842 12.368 178.874 12.384 178.906 12.384C178.938 12.368 178.954 12.336 178.954 12.288V11.88ZM178.714 19.272C178.874 18.856 178.954 18.304 178.954 17.616C178.954 16.976 178.866 16.456 178.69 16.056C178.418 15.48 177.962 15.192 177.322 15.192C176.762 15.192 176.338 15.472 176.05 16.032C175.794 16.48 175.666 17.032 175.666 17.688C175.666 18.328 175.77 18.848 175.978 19.248C176.266 19.808 176.73 20.088 177.37 20.088C178.01 20.088 178.458 19.816 178.714 19.272Z" fill="#F0F0F0"/>
<path d="M9.432 7.56C9.432 7.448 9.464 7.36 9.528 7.296C9.592 7.232 9.68 7.2 9.792 7.2H13.584C13.696 7.2 13.784 7.232 13.848 7.296C13.912 7.36 13.944 7.448 13.944 7.56V23.64C13.944 23.752 13.912 23.84 13.848 23.904C13.784 23.968 13.696 24 13.584 24H9.792C9.68 24 9.592 23.968 9.528 23.904C9.464 23.84 9.432 23.752 9.432 23.64V17.544C9.432 17.464 9.392 17.424 9.312 17.424H5.568C5.488 17.424 5.448 17.464 5.448 17.544V23.64C5.448 23.752 5.416 23.84 5.352 23.904C5.288 23.968 5.2 24 5.088 24H1.296C1.184 24 1.096 23.968 1.032 23.904C0.968 23.84 0.936 23.752 0.936 23.64V7.56C0.936 7.448 0.968 7.36 1.032 7.296C1.096 7.232 1.184 7.2 1.296 7.2H5.088C5.2 7.2 5.288 7.232 5.352 7.296C5.416 7.36 5.448 7.448 5.448 7.56V13.44C5.448 13.52 5.488 13.56 5.568 13.56H9.312C9.392 13.56 9.432 13.52 9.432 13.44V7.56ZM21.3679 24.192C19.8479 24.192 18.5599 23.784 17.5039 22.968C16.4639 22.152 15.7759 21.048 15.4399 19.656C15.2799 19.08 15.1999 18.44 15.1999 17.736C15.1999 16.952 15.2959 16.24 15.4879 15.6C15.8719 14.272 16.5759 13.232 17.5999 12.48C18.6399 11.712 19.9039 11.328 21.3919 11.328C22.8799 11.328 24.1279 11.712 25.1359 12.48C26.1599 13.232 26.8639 14.256 27.2479 15.552C27.4399 16.224 27.5359 16.936 27.5359 17.688C27.5359 18.296 27.4719 18.904 27.3439 19.512C27.0079 20.952 26.3119 22.096 25.2559 22.944C24.2159 23.776 22.9199 24.192 21.3679 24.192ZM21.3679 20.328C21.7839 20.328 22.1199 20.192 22.3759 19.92C22.6319 19.632 22.8079 19.256 22.9039 18.792C22.9679 18.488 22.9999 18.128 22.9999 17.712C22.9999 17.344 22.9599 16.976 22.8799 16.608C22.6399 15.664 22.1359 15.192 21.3679 15.192C20.5679 15.192 20.0639 15.664 19.8559 16.608C19.7759 16.88 19.7359 17.248 19.7359 17.712C19.7359 18.128 19.7679 18.488 19.8319 18.792C20.0719 19.816 20.5839 20.328 21.3679 20.328ZM29.2067 24C29.0947 24 29.0067 23.968 28.9427 23.904C28.8787 23.84 28.8467 23.752 28.8467 23.64V7.56C28.8467 7.448 28.8787 7.36 28.9427 7.296C29.0067 7.232 29.0947 7.2 29.2067 7.2H32.9987C33.1107 7.2 33.1987 7.232 33.2627 7.296C33.3267 7.36 33.3587 7.448 33.3587 7.56V23.64C33.3587 23.752 33.3267 23.84 33.2627 23.904C33.1987 23.968 33.1107 24 32.9987 24H29.2067ZM37.2204 10.68C36.5644 10.68 36.0204 10.472 35.5884 10.056C35.1724 9.624 34.9644 9.08 34.9644 8.424C34.9644 7.752 35.1724 7.208 35.5884 6.792C36.0204 6.376 36.5644 6.168 37.2204 6.168C37.8764 6.168 38.4124 6.376 38.8284 6.792C39.2604 7.208 39.4764 7.752 39.4764 8.424C39.4764 9.064 39.2604 9.6 38.8284 10.032C38.4124 10.464 37.8764 10.68 37.2204 10.68ZM35.3004 24C35.1884 24 35.1004 23.968 35.0364 23.904C34.9724 23.84 34.9404 23.752 34.9404 23.64V11.88C34.9404 11.768 34.9724 11.68 35.0364 11.616C35.1004 11.552 35.1884 11.52 35.3004 11.52H39.0924C39.2044 11.52 39.2924 11.552 39.3564 11.616C39.4204 11.68 39.4524 11.768 39.4524 11.88V23.64C39.4524 23.752 39.4204 23.84 39.3564 23.904C39.2924 23.968 39.2044 24 39.0924 24H35.3004ZM48.7622 7.56C48.7622 7.448 48.7942 7.36 48.8582 7.296C48.9222 7.232 49.0102 7.2 49.1222 7.2H52.9142C53.0262 7.2 53.1142 7.232 53.1782 7.296C53.2422 7.36 53.2742 7.448 53.2742 7.56V23.64C53.2742 23.752 53.2422 23.84 53.1782 23.904C53.1142 23.968 53.0262 24 52.9142 24H49.1222C49.0102 24 48.9222 23.968 48.8582 23.904C48.7942 23.84 48.7622 23.752 48.7622 23.64V22.92C48.7622 22.872 48.7462 22.84 48.7142 22.824C48.6822 22.808 48.6502 22.824 48.6182 22.872C48.0262 23.752 47.0982 24.192 45.8342 24.192C44.7622 24.192 43.7942 23.856 42.9302 23.184C42.0822 22.496 41.4822 21.568 41.1302 20.4C40.8902 19.6 40.7702 18.704 40.7702 17.712C40.7702 16.56 40.9462 15.536 41.2982 14.64C41.6822 13.664 42.2822 12.872 43.0982 12.264C43.9142 11.64 44.8902 11.328 46.0262 11.328C47.1942 11.328 48.0582 11.696 48.6182 12.432C48.6502 12.464 48.6822 12.48 48.7142 12.48C48.7462 12.464 48.7622 12.432 48.7622 12.384V7.56ZM48.4022 19.512C48.6422 19.048 48.7622 18.472 48.7622 17.784C48.7622 17.016 48.6342 16.4 48.3782 15.936C48.0902 15.44 47.6742 15.192 47.1302 15.192C46.5542 15.192 46.1302 15.456 45.8582 15.984C45.6182 16.432 45.4982 17.032 45.4982 17.784C45.4982 18.504 45.6182 19.088 45.8582 19.536C46.1462 20.064 46.5702 20.328 47.1302 20.328C47.6902 20.328 48.1142 20.056 48.4022 19.512ZM60.3566 11.328C61.4446 11.328 62.4446 11.512 63.3566 11.88C64.2686 12.248 64.9886 12.752 65.5166 13.392C66.0446 14.032 66.3086 14.728 66.3086 15.48V23.64C66.3086 23.752 66.2766 23.84 66.2126 23.904C66.1486 23.968 66.0606 24 65.9486 24H62.1566C62.0446 24 61.9566 23.968 61.8926 23.904C61.8286 23.84 61.7966 23.752 61.7966 23.64V22.8C61.7966 22.736 61.7806 22.704 61.7486 22.704C61.7326 22.688 61.7086 22.704 61.6766 22.752C61.4046 23.248 61.0286 23.616 60.5486 23.856C60.0686 24.08 59.4366 24.192 58.6526 24.192C57.3406 24.192 56.3086 23.896 55.5566 23.304C54.8046 22.696 54.4286 21.816 54.4286 20.664C54.4286 19.448 54.8526 18.512 55.7006 17.856C56.5646 17.2 57.8126 16.872 59.4446 16.872H61.6766C61.7566 16.872 61.7966 16.832 61.7966 16.752V16.32C61.7966 15.984 61.6686 15.712 61.4126 15.504C61.1726 15.296 60.8446 15.192 60.4286 15.192C60.1406 15.192 59.8846 15.24 59.6606 15.336C59.4366 15.432 59.2766 15.56 59.1806 15.72C59.1166 15.832 59.0526 15.912 58.9886 15.96C58.9406 15.992 58.8686 16 58.7726 15.984L54.9086 15.504C54.6846 15.472 54.5726 15.376 54.5726 15.216C54.6366 14.496 54.9246 13.84 55.4366 13.248C55.9486 12.656 56.6286 12.192 57.4766 11.856C58.3406 11.504 59.3006 11.328 60.3566 11.328ZM60.0446 21.072C60.5566 21.072 60.9726 20.936 61.2926 20.664C61.6286 20.392 61.7966 20.024 61.7966 19.56V19.248C61.7966 19.168 61.7566 19.128 61.6766 19.128H60.4766C59.4686 19.128 58.9646 19.456 58.9646 20.112C58.9646 20.4 59.0526 20.632 59.2286 20.808C59.4206 20.984 59.6926 21.072 60.0446 21.072ZM67.8936 24C67.7816 24 67.6936 23.968 67.6296 23.904C67.5656 23.84 67.5336 23.752 67.5336 23.64V20.184C67.5336 20.008 67.5976 19.864 67.7256 19.752L72.1656 15.744C72.1976 15.712 72.2056 15.68 72.1896 15.648C72.1896 15.616 72.1656 15.6 72.1176 15.6H68.0616C67.9496 15.6 67.8616 15.568 67.7976 15.504C67.7336 15.44 67.7016 15.352 67.7016 15.24V11.88C67.7016 11.768 67.7336 11.68 67.7976 11.616C67.8616 11.552 67.9496 11.52 68.0616 11.52H77.3256C77.4376 11.52 77.5256 11.552 77.5896 11.616C77.6536 11.68 77.6856 11.768 77.6856 11.88V15.336C77.6856 15.512 77.6216 15.656 77.4936 15.768L72.8376 19.776C72.8056 19.808 72.7896 19.84 72.7896 19.872C72.8056 19.904 72.8376 19.92 72.8856 19.92H77.5176C77.6296 19.92 77.7176 19.952 77.7816 20.016C77.8456 20.08 77.8776 20.168 77.8776 20.28V23.64C77.8776 23.752 77.8456 23.84 77.7816 23.904C77.7176 23.968 77.6296 24 77.5176 24H67.8936ZM91.143 16.872C91.191 17.224 91.215 17.584 91.215 17.952C91.215 18.208 91.207 18.408 91.191 18.552C91.191 18.776 91.071 18.888 90.831 18.888H83.631C83.567 18.888 83.535 18.92 83.535 18.984C83.535 19.128 83.599 19.296 83.727 19.488C83.887 19.76 84.167 19.992 84.567 20.184C84.983 20.36 85.447 20.448 85.959 20.448C86.391 20.448 86.791 20.384 87.159 20.256C87.527 20.128 87.839 19.944 88.095 19.704C88.175 19.64 88.255 19.608 88.335 19.608C88.447 19.608 88.535 19.656 88.599 19.752L90.423 22.08C90.487 22.16 90.519 22.248 90.519 22.344C90.519 22.44 90.479 22.52 90.399 22.584C89.839 23.128 89.143 23.536 88.311 23.808C87.479 24.064 86.583 24.192 85.623 24.192C84.135 24.192 82.863 23.88 81.807 23.256C80.751 22.632 79.983 21.744 79.503 20.592C79.151 19.76 78.975 18.864 78.975 17.904C78.975 16.896 79.119 16 79.407 15.216C79.839 14 80.551 13.048 81.543 12.36C82.535 11.672 83.703 11.328 85.047 11.328C86.071 11.328 87.015 11.568 87.879 12.048C88.759 12.528 89.479 13.192 90.039 14.04C90.615 14.872 90.983 15.816 91.143 16.872ZM85.023 15.192C84.367 15.192 83.911 15.512 83.655 16.152L83.559 16.416C83.543 16.464 83.551 16.504 83.583 16.536C83.615 16.552 83.647 16.56 83.679 16.56H86.415C86.479 16.56 86.511 16.528 86.511 16.464C86.511 16.4 86.487 16.296 86.439 16.152C86.359 15.848 86.191 15.616 85.935 15.456C85.695 15.28 85.391 15.192 85.023 15.192ZM108.302 15.264C108.238 15.312 108.238 15.36 108.302 15.408C109.022 15.808 109.55 16.32 109.886 16.944C110.222 17.568 110.39 18.32 110.39 19.2C110.39 20.848 109.814 22.064 108.662 22.848C107.51 23.616 106.014 24 104.174 24H97.7179C97.6059 24 97.5179 23.968 97.4539 23.904C97.3899 23.84 97.3579 23.752 97.3579 23.64V7.56C97.3579 7.448 97.3899 7.36 97.4539 7.296C97.5179 7.232 97.6059 7.2 97.7179 7.2H103.958C106.006 7.2 107.542 7.568 108.566 8.304C109.606 9.024 110.126 10.24 110.126 11.952C110.126 13.472 109.518 14.576 108.302 15.264ZM101.99 11.064C101.91 11.064 101.87 11.104 101.87 11.184V13.584C101.87 13.664 101.91 13.704 101.99 13.704H103.958C105.126 13.704 105.71 13.264 105.71 12.384C105.71 11.504 105.126 11.064 103.958 11.064H101.99ZM104.174 20.136C105.31 20.136 105.878 19.664 105.878 18.72C105.878 17.824 105.318 17.376 104.198 17.376H101.99C101.91 17.376 101.87 17.416 101.87 17.496V20.016C101.87 20.096 101.91 20.136 101.99 20.136H104.174ZM117.884 24.192C116.364 24.192 115.076 23.784 114.02 22.968C112.98 22.152 112.292 21.048 111.956 19.656C111.796 19.08 111.716 18.44 111.716 17.736C111.716 16.952 111.812 16.24 112.004 15.6C112.388 14.272 113.092 13.232 114.116 12.48C115.156 11.712 116.42 11.328 117.908 11.328C119.396 11.328 120.644 11.712 121.652 12.48C122.676 13.232 123.38 14.256 123.764 15.552C123.956 16.224 124.052 16.936 124.052 17.688C124.052 18.296 123.988 18.904 123.859 19.512C123.524 20.952 122.828 22.096 121.772 22.944C120.732 23.776 119.436 24.192 117.884 24.192ZM117.884 20.328C118.3 20.328 118.636 20.192 118.892 19.92C119.148 19.632 119.324 19.256 119.42 18.792C119.484 18.488 119.516 18.128 119.516 17.712C119.516 17.344 119.476 16.976 119.396 16.608C119.156 15.664 118.652 15.192 117.884 15.192C117.084 15.192 116.58 15.664 116.372 16.608C116.292 16.88 116.252 17.248 116.252 17.712C116.252 18.128 116.284 18.488 116.348 18.792C116.588 19.816 117.1 20.328 117.884 20.328ZM131.266 24.192C129.746 24.192 128.458 23.784 127.402 22.968C126.362 22.152 125.674 21.048 125.338 19.656C125.178 19.08 125.098 18.44 125.098 17.736C125.098 16.952 125.194 16.24 125.386 15.6C125.77 14.272 126.474 13.232 127.498 12.48C128.538 11.712 129.802 11.328 131.29 11.328C132.778 11.328 134.026 11.712 135.034 12.48C136.058 13.232 136.762 14.256 137.146 15.552C137.338 16.224 137.434 16.936 137.434 17.688C137.434 18.296 137.37 18.904 137.242 19.512C136.906 20.952 136.21 22.096 135.154 22.944C134.114 23.776 132.818 24.192 131.266 24.192ZM131.266 20.328C131.682 20.328 132.018 20.192 132.274 19.92C132.53 19.632 132.706 19.256 132.802 18.792C132.866 18.488 132.898 18.128 132.898 17.712C132.898 17.344 132.858 16.976 132.778 16.608C132.538 15.664 132.034 15.192 131.266 15.192C130.466 15.192 129.962 15.664 129.754 16.608C129.674 16.88 129.634 17.248 129.634 17.712C129.634 18.128 129.666 18.488 129.73 18.792C129.97 19.816 130.482 20.328 131.266 20.328ZM139.105 24C138.993 24 138.905 23.968 138.841 23.904C138.777 23.84 138.745 23.752 138.745 23.64V7.56C138.745 7.448 138.777 7.36 138.841 7.296C138.905 7.232 138.993 7.2 139.105 7.2H142.897C143.009 7.2 143.097 7.232 143.161 7.296C143.225 7.36 143.257 7.448 143.257 7.56V14.448C143.257 14.496 143.273 14.528 143.305 14.544C143.337 14.56 143.369 14.544 143.401 14.496L145.441 11.736C145.537 11.592 145.681 11.52 145.873 11.52H150.193C150.289 11.52 150.361 11.544 150.409 11.592C150.473 11.624 150.505 11.672 150.505 11.736C150.505 11.8 150.481 11.872 150.433 11.952L147.337 16.128C147.305 16.176 147.305 16.232 147.337 16.296L150.865 23.568L150.913 23.76C150.913 23.92 150.809 24 150.601 24H146.641C146.433 24 146.289 23.904 146.209 23.712L144.265 19.104C144.249 19.072 144.217 19.056 144.169 19.056C144.137 19.04 144.113 19.048 144.097 19.08L143.305 20.424C143.273 20.488 143.257 20.536 143.257 20.568V23.64C143.257 23.752 143.225 23.84 143.161 23.904C143.097 23.968 143.009 24 142.897 24H139.105ZM154.338 10.68C153.682 10.68 153.138 10.472 152.706 10.056C152.29 9.624 152.082 9.08 152.082 8.424C152.082 7.752 152.29 7.208 152.706 6.792C153.138 6.376 153.682 6.168 154.338 6.168C154.994 6.168 155.53 6.376 155.946 6.792C156.378 7.208 156.594 7.752 156.594 8.424C156.594 9.064 156.378 9.6 155.946 10.032C155.53 10.464 154.994 10.68 154.338 10.68ZM152.418 24C152.306 24 152.218 23.968 152.154 23.904C152.09 23.84 152.058 23.752 152.058 23.64V11.88C152.058 11.768 152.09 11.68 152.154 11.616C152.218 11.552 152.306 11.52 152.418 11.52H156.21C156.322 11.52 156.41 11.552 156.474 11.616C156.538 11.68 156.57 11.768 156.57 11.88V23.64C156.57 23.752 156.538 23.84 156.474 23.904C156.41 23.968 156.322 24 156.21 24H152.418ZM165.639 11.328C166.439 11.328 167.159 11.504 167.799 11.856C168.439 12.208 168.943 12.728 169.311 13.416C169.695 14.088 169.887 14.888 169.887 15.816V23.64C169.887 23.752 169.855 23.84 169.791 23.904C169.727 23.968 169.639 24 169.527 24H165.735C165.623 24 165.535 23.968 165.471 23.904C165.407 23.84 165.375 23.752 165.375 23.64V16.8C165.375 16.32 165.247 15.936 164.991 15.648C164.751 15.344 164.431 15.192 164.031 15.192C163.615 15.192 163.279 15.344 163.023 15.648C162.783 15.936 162.663 16.32 162.663 16.8V23.64C162.663 23.752 162.631 23.84 162.567 23.904C162.503 23.968 162.415 24 162.303 24H158.511C158.399 24 158.311 23.968 158.247 23.904C158.183 23.84 158.151 23.752 158.151 23.64V11.88C158.151 11.768 158.183 11.68 158.247 11.616C158.311 11.552 158.399 11.52 158.511 11.52H162.303C162.415 11.52 162.503 11.552 162.567 11.616C162.631 11.68 162.663 11.768 162.663 11.88V12.744C162.663 12.808 162.679 12.848 162.711 12.864C162.743 12.88 162.767 12.864 162.783 12.816C163.391 11.824 164.343 11.328 165.639 11.328ZM178.954 11.88C178.954 11.768 178.986 11.68 179.05 11.616C179.114 11.552 179.202 11.52 179.314 11.52H183.106C183.218 11.52 183.306 11.552 183.37 11.616C183.434 11.68 183.466 11.768 183.466 11.88V22.368C183.466 24.656 182.802 26.28 181.474 27.24C180.162 28.216 178.506 28.704 176.506 28.704C175.61 28.704 174.77 28.632 173.986 28.488C173.778 28.44 173.674 28.304 173.674 28.08L173.818 24.84C173.818 24.568 173.962 24.472 174.25 24.552C174.922 24.728 175.554 24.816 176.146 24.816C176.914 24.816 177.546 24.656 178.042 24.336C178.538 24.016 178.834 23.528 178.93 22.872C178.946 22.808 178.93 22.768 178.882 22.752C178.85 22.736 178.81 22.752 178.762 22.8C178.218 23.312 177.434 23.568 176.41 23.568C173.85 23.568 172.218 22.528 171.514 20.448C171.242 19.648 171.106 18.712 171.106 17.64C171.106 16.456 171.274 15.448 171.61 14.616C171.994 13.608 172.594 12.808 173.41 12.216C174.242 11.624 175.194 11.328 176.266 11.328C177.37 11.328 178.218 11.664 178.81 12.336C178.842 12.368 178.874 12.384 178.906 12.384C178.938 12.368 178.954 12.336 178.954 12.288V11.88ZM178.714 19.272C178.874 18.856 178.954 18.304 178.954 17.616C178.954 16.976 178.866 16.456 178.69 16.056C178.418 15.48 177.962 15.192 177.322 15.192C176.762 15.192 176.338 15.472 176.05 16.032C175.794 16.48 175.666 17.032 175.666 17.688C175.666 18.328 175.77 18.848 175.978 19.248C176.266 19.808 176.73 20.088 177.37 20.088C178.01 20.088 178.458 19.816 178.714 19.272Z" fill="#101935"/>
<circle cx="37" cy="8" r="3" fill="url(#paint0_linear_15444_62046)"/>
<circle cx="154" cy="8" r="3" fill="url(#paint1_linear_15444_62046)"/>
<defs>
<linearGradient id="paint0_linear_15444_62046" x1="37" y1="5" x2="37" y2="11" gradientUnits="userSpaceOnUse">
<stop stop-color="#FF1464"/>
<stop offset="1" stop-color="#EC1060"/>
</linearGradient>
<linearGradient id="paint1_linear_15444_62046" x1="154" y1="5" x2="154" y2="11" gradientUnits="userSpaceOnUse">
<stop stop-color="#FF1464"/>
<stop offset="1" stop-color="#EC1060"/>
</linearGradient>
</defs>
</svg>
